<mxfile host="65bd71144e">
    <diagram id="4BZgUExTRT3-vNbdLNxr" name="Automat">
        <mxGraphModel dx="1044" dy="1234" grid="1" gridSize="10" guides="1" tooltips="1" connect="1" arrows="1" fold="1" page="1" pageScale="1" pageWidth="850" pageHeight="1100" math="0" shadow="0">
            <root>
                <mxCell id="0"/>
                <mxCell id="1" parent="0"/>
                <mxCell id="24" value="&amp;lt;E&amp;gt;" style="edgeStyle=none;html=1;exitX=1;exitY=0.25;exitDx=0;exitDy=0;entryX=0;entryY=0.5;entryDx=0;entryDy=0;fontSize=20;" edge="1" parent="1" source="2" target="10">
                    <mxGeometry relative="1" as="geometry"/>
                </mxCell>
                <mxCell id="28" value="&amp;lt;T&amp;gt;" style="edgeStyle=none;html=1;entryX=0.5;entryY=0;entryDx=0;entryDy=0;fontSize=20;" edge="1" parent="1" source="2" target="4">
                    <mxGeometry relative="1" as="geometry"/>
                </mxCell>
                <mxCell id="41" value="slovo" style="edgeStyle=none;html=1;entryX=0.75;entryY=0;entryDx=0;entryDy=0;fontSize=20;" edge="1" parent="1" source="2" target="18">
                    <mxGeometry x="-0.2184" relative="1" as="geometry">
                        <Array as="points">
                            <mxPoint x="120" y="260"/>
                        </Array>
                        <mxPoint as="offset"/>
                    </mxGeometry>
                </mxCell>
                <mxCell id="44" value="&amp;lt;P&amp;gt;" style="edgeStyle=none;html=1;exitX=1;exitY=0.5;exitDx=0;exitDy=0;entryX=0.75;entryY=0;entryDx=0;entryDy=0;fontSize=20;" edge="1" parent="1" source="2" target="22">
                    <mxGeometry relative="1" as="geometry">
                        <Array as="points">
                            <mxPoint x="920" y="260"/>
                        </Array>
                    </mxGeometry>
                </mxCell>
                <mxCell id="49" value="epsilon" style="edgeStyle=none;html=1;exitX=1;exitY=0.75;exitDx=0;exitDy=0;entryX=0.5;entryY=0;entryDx=0;entryDy=0;fontSize=20;" edge="1" parent="1" source="2" target="46">
                    <mxGeometry relative="1" as="geometry">
                        <Array as="points">
                            <mxPoint x="480" y="310"/>
                            <mxPoint x="480" y="670"/>
                            <mxPoint x="580" y="670"/>
                        </Array>
                    </mxGeometry>
                </mxCell>
                <mxCell id="2" value="&lt;pre&gt;&lt;span style=&quot;font-size: 20px&quot;&gt;&amp;lt;E'&amp;gt; → • &amp;lt;E&amp;gt; ─┤&lt;br&gt;&amp;lt;E&amp;gt; → • &amp;lt;E&amp;gt; | &amp;lt;T&amp;gt;&lt;br&gt;&amp;lt;E&amp;gt; → • &amp;lt;T&amp;gt;&lt;br&gt;&amp;lt;T&amp;gt; → • &amp;lt;T&amp;gt; ● &amp;lt;P&amp;gt;&lt;br&gt;&amp;lt;T&amp;gt; → • &amp;lt;P&amp;gt;&lt;br&gt;&amp;lt;P&amp;gt; → • slovo&lt;br&gt;&amp;lt;P&amp;gt; → • epsilon&lt;/span&gt;&lt;/pre&gt;" style="rounded=0;whiteSpace=wrap;html=1;align=left;" vertex="1" parent="1">
                    <mxGeometry x="200" y="160" width="240" height="200" as="geometry"/>
                </mxCell>
                <mxCell id="3" value="&lt;pre&gt;&lt;font style=&quot;font-size: 20px&quot;&gt;∇&lt;/font&gt;&lt;/pre&gt;" style="rounded=0;whiteSpace=wrap;html=1;" vertex="1" parent="1">
                    <mxGeometry x="200" y="120" width="80" height="40" as="geometry"/>
                </mxCell>
                <mxCell id="32" value="&lt;pre style=&quot;text-align: left ; font-size: 12px&quot;&gt;&lt;span style=&quot;font-size: 20px&quot;&gt;●&lt;/span&gt;&lt;/pre&gt;" style="edgeStyle=none;html=1;entryX=0.5;entryY=0;entryDx=0;entryDy=0;fontSize=20;" edge="1" parent="1" source="4" target="16">
                    <mxGeometry relative="1" as="geometry"/>
                </mxCell>
                <mxCell id="4" value="&lt;pre&gt;&lt;pre style=&quot;font-size: 12px&quot;&gt;&lt;span style=&quot;font-size: 20px&quot;&gt;&amp;lt;E&amp;gt; → &amp;lt;T&amp;gt; •&lt;br&gt;&amp;lt;T&amp;gt; → &amp;lt;T&amp;gt; • ● &amp;lt;P&amp;gt;&lt;br&gt;&lt;/span&gt;&lt;/pre&gt;&lt;/pre&gt;" style="rounded=0;whiteSpace=wrap;html=1;align=left;fontSize=20;" vertex="1" parent="1">
                    <mxGeometry x="200" y="440" width="240" height="80" as="geometry"/>
                </mxCell>
                <mxCell id="5" value="&lt;pre&gt;&lt;font style=&quot;font-size: 20px&quot;&gt;&amp;lt;T&amp;gt;&lt;sub&gt;x1&lt;/sub&gt;&lt;/font&gt;&lt;/pre&gt;" style="rounded=0;whiteSpace=wrap;html=1;fontSize=20;" vertex="1" parent="1">
                    <mxGeometry x="200" y="400" width="80" height="40" as="geometry"/>
                </mxCell>
                <mxCell id="33" value="&lt;pre style=&quot;text-align: left&quot;&gt;●&lt;/pre&gt;" style="edgeStyle=none;html=1;entryX=1;entryY=0.5;entryDx=0;entryDy=0;fontSize=20;" edge="1" parent="1" source="6" target="16">
                    <mxGeometry relative="1" as="geometry">
                        <Array as="points">
                            <mxPoint x="630" y="640"/>
                        </Array>
                    </mxGeometry>
                </mxCell>
                <mxCell id="6" value="&lt;pre&gt;&amp;lt;E&amp;gt; → &amp;lt;E&amp;gt; | &amp;lt;T&amp;gt; •&lt;br&gt;&amp;lt;T&amp;gt; → &amp;lt;T&amp;gt; • ● &amp;lt;P&amp;gt;&lt;br&gt;&lt;/pre&gt;" style="rounded=0;whiteSpace=wrap;html=1;align=left;fontSize=20;" vertex="1" parent="1">
                    <mxGeometry x="520" y="520" width="220" height="80" as="geometry"/>
                </mxCell>
                <mxCell id="7" value="&lt;pre&gt;&amp;lt;T&amp;gt;&lt;sub&gt;x2&lt;/sub&gt;&lt;/pre&gt;" style="rounded=0;whiteSpace=wrap;html=1;fontSize=20;" vertex="1" parent="1">
                    <mxGeometry x="520" y="480" width="80" height="40" as="geometry"/>
                </mxCell>
                <mxCell id="25" value="&lt;pre style=&quot;text-align: left ; font-size: 12px&quot;&gt;&lt;span style=&quot;font-size: 20px&quot;&gt;─┤&lt;/span&gt;&lt;/pre&gt;" style="edgeStyle=none;html=1;entryX=0;entryY=0.5;entryDx=0;entryDy=0;fontSize=20;" edge="1" parent="1" source="10" target="12">
                    <mxGeometry relative="1" as="geometry"/>
                </mxCell>
                <mxCell id="26" value="|" style="edgeStyle=none;html=1;fontSize=20;" edge="1" parent="1" source="10">
                    <mxGeometry x="-0.1429" y="10" relative="1" as="geometry">
                        <mxPoint x="630" y="320" as="targetPoint"/>
                        <mxPoint as="offset"/>
                    </mxGeometry>
                </mxCell>
                <mxCell id="10" value="&lt;pre&gt;&lt;pre style=&quot;font-size: 12px&quot;&gt;&lt;span style=&quot;font-size: 20px&quot;&gt;&amp;lt;E'&amp;gt; → &amp;lt;E&amp;gt; • ─┤&lt;br&gt;&amp;lt;E&amp;gt; → &amp;lt;E&amp;gt; • | &amp;lt;T&amp;gt;&lt;br&gt;&lt;/span&gt;&lt;/pre&gt;&lt;/pre&gt;" style="rounded=0;whiteSpace=wrap;html=1;align=left;fontSize=20;" vertex="1" parent="1">
                    <mxGeometry x="520" y="170" width="220" height="80" as="geometry"/>
                </mxCell>
                <mxCell id="11" value="&lt;pre&gt;&amp;lt;E&amp;gt;&lt;sub&gt;x&lt;/sub&gt;&lt;/pre&gt;" style="rounded=0;whiteSpace=wrap;html=1;fontSize=20;" vertex="1" parent="1">
                    <mxGeometry x="520" y="130" width="80" height="40" as="geometry"/>
                </mxCell>
                <mxCell id="12" value="&lt;pre&gt;&lt;pre&gt;&amp;lt;E'&amp;gt; → &amp;lt;E&amp;gt; ─┤ •&lt;br&gt;&lt;/pre&gt;&lt;/pre&gt;" style="rounded=0;whiteSpace=wrap;html=1;align=left;fontSize=20;" vertex="1" parent="1">
                    <mxGeometry x="800" y="185" width="200" height="50" as="geometry"/>
                </mxCell>
                <mxCell id="13" value="&lt;pre&gt;&lt;pre style=&quot;text-align: left ; font-size: 12px&quot;&gt;&lt;span style=&quot;font-size: 20px&quot;&gt;─┤&lt;sub&gt;0&lt;/sub&gt;&lt;/span&gt;&lt;/pre&gt;&lt;/pre&gt;" style="rounded=0;whiteSpace=wrap;html=1;fontSize=20;" vertex="1" parent="1">
                    <mxGeometry x="800" y="145" width="80" height="40" as="geometry"/>
                </mxCell>
                <mxCell id="29" value="&amp;lt;T&amp;gt;" style="edgeStyle=none;html=1;entryX=0.5;entryY=0;entryDx=0;entryDy=0;fontSize=20;" edge="1" parent="1" source="14" target="6">
                    <mxGeometry relative="1" as="geometry"/>
                </mxCell>
                <mxCell id="37" value="slovo" style="edgeStyle=none;html=1;entryX=0.75;entryY=0;entryDx=0;entryDy=0;fontSize=20;" edge="1" parent="1" source="14" target="18">
                    <mxGeometry x="-0.008" y="-10" relative="1" as="geometry">
                        <Array as="points">
                            <mxPoint x="120" y="390"/>
                        </Array>
                        <mxPoint as="offset"/>
                    </mxGeometry>
                </mxCell>
                <mxCell id="42" value="&amp;lt;P&amp;gt;" style="edgeStyle=none;html=1;exitX=1;exitY=0.25;exitDx=0;exitDy=0;entryX=0;entryY=0.5;entryDx=0;entryDy=0;fontSize=20;" edge="1" parent="1" source="14" target="22">
                    <mxGeometry relative="1" as="geometry"/>
                </mxCell>
                <mxCell id="48" value="epsilon" style="edgeStyle=none;html=1;exitX=1;exitY=0.5;exitDx=0;exitDy=0;entryX=1;entryY=0.5;entryDx=0;entryDy=0;fontSize=20;" edge="1" parent="1" source="14" target="45">
                    <mxGeometry relative="1" as="geometry">
                        <Array as="points">
                            <mxPoint x="800" y="390"/>
                            <mxPoint x="800" y="780"/>
                        </Array>
                    </mxGeometry>
                </mxCell>
                <mxCell id="14" value="&lt;pre&gt;&lt;pre&gt;&amp;lt;E&amp;gt; → &amp;lt;E&amp;gt; | • &amp;lt;T&amp;gt;&lt;br&gt;&amp;lt;T&amp;gt; → • &amp;lt;T&amp;gt; ● &amp;lt;P&amp;gt;&lt;br&gt;&amp;lt;T&amp;gt; → • &amp;lt;P&amp;gt;&lt;br&gt;&amp;lt;P&amp;gt; → • slovo&lt;br&gt;&amp;lt;P&amp;gt; → • epsilon&lt;/pre&gt;&lt;/pre&gt;" style="rounded=0;whiteSpace=wrap;html=1;align=left;fontSize=20;" vertex="1" parent="1">
                    <mxGeometry x="520" y="320" width="220" height="140" as="geometry"/>
                </mxCell>
                <mxCell id="15" value="&lt;pre&gt;&lt;font style=&quot;font-size: 20px&quot;&gt;|&lt;sub&gt;1&lt;/sub&gt;&lt;/font&gt;&lt;/pre&gt;" style="rounded=0;whiteSpace=wrap;html=1;fontSize=20;" vertex="1" parent="1">
                    <mxGeometry x="520" y="280" width="80" height="40" as="geometry"/>
                </mxCell>
                <mxCell id="36" value="slovo" style="edgeStyle=none;html=1;entryX=1;entryY=0.5;entryDx=0;entryDy=0;fontSize=20;" edge="1" parent="1" source="16" target="18">
                    <mxGeometry relative="1" as="geometry"/>
                </mxCell>
                <mxCell id="40" value="&amp;lt;P&amp;gt;" style="edgeStyle=none;html=1;entryX=0.5;entryY=0;entryDx=0;entryDy=0;fontSize=20;" edge="1" parent="1" source="16" target="20">
                    <mxGeometry relative="1" as="geometry"/>
                </mxCell>
                <mxCell id="47" value="epsilon" style="edgeStyle=none;html=1;exitX=0.75;exitY=1;exitDx=0;exitDy=0;entryX=0;entryY=0.5;entryDx=0;entryDy=0;fontSize=20;" edge="1" parent="1" source="16" target="45">
                    <mxGeometry relative="1" as="geometry">
                        <Array as="points">
                            <mxPoint x="380" y="720"/>
                            <mxPoint x="480" y="720"/>
                            <mxPoint x="480" y="780"/>
                        </Array>
                    </mxGeometry>
                </mxCell>
                <mxCell id="16" value="&lt;pre&gt;&lt;pre&gt;&amp;lt;T&amp;gt; → &amp;lt;T&amp;gt; ● • &amp;lt;P&amp;gt;&lt;br&gt;&amp;lt;P&amp;gt; → • slovo&lt;br&gt;&amp;lt;P&amp;gt; → • epsilon&lt;span style=&quot;font-size: 12px&quot;&gt;&lt;br&gt;&lt;/span&gt;&lt;/pre&gt;&lt;/pre&gt;" style="rounded=0;whiteSpace=wrap;html=1;align=left;fontSize=20;" vertex="1" parent="1">
                    <mxGeometry x="200" y="600" width="240" height="80" as="geometry"/>
                </mxCell>
                <mxCell id="17" value="&lt;pre&gt;&lt;pre style=&quot;text-align: left&quot;&gt;●&lt;sub&gt;3&lt;/sub&gt;&lt;/pre&gt;&lt;/pre&gt;" style="rounded=0;whiteSpace=wrap;html=1;fontSize=20;" vertex="1" parent="1">
                    <mxGeometry x="200" y="560" width="80" height="40" as="geometry"/>
                </mxCell>
                <mxCell id="18" value="&lt;pre&gt;&amp;lt;P&amp;gt; → slovo •&lt;br&gt;&lt;/pre&gt;" style="rounded=0;whiteSpace=wrap;html=1;align=left;fontSize=20;" vertex="1" parent="1">
                    <mxGeometry y="615" width="160" height="50" as="geometry"/>
                </mxCell>
                <mxCell id="19" value="&lt;pre&gt;&lt;font style=&quot;font-size: 20px&quot;&gt;slovo&lt;sub&gt;5&lt;/sub&gt;&lt;/font&gt;&lt;/pre&gt;" style="rounded=0;whiteSpace=wrap;html=1;fontSize=20;" vertex="1" parent="1">
                    <mxGeometry y="575" width="80" height="40" as="geometry"/>
                </mxCell>
                <mxCell id="20" value="&lt;pre&gt;&amp;lt;T&amp;gt; → &amp;lt;T&amp;gt; ● &amp;lt;P&amp;gt; •&lt;br&gt;&lt;/pre&gt;" style="rounded=0;whiteSpace=wrap;html=1;align=left;fontSize=20;" vertex="1" parent="1">
                    <mxGeometry x="200" y="760" width="240" height="40" as="geometry"/>
                </mxCell>
                <mxCell id="21" value="&lt;pre&gt;&lt;font style=&quot;font-size: 20px&quot;&gt;&amp;lt;P&amp;gt;&lt;sub&gt;3&lt;/sub&gt;&lt;/font&gt;&lt;/pre&gt;" style="rounded=0;whiteSpace=wrap;html=1;fontSize=20;" vertex="1" parent="1">
                    <mxGeometry x="200" y="720" width="80" height="40" as="geometry"/>
                </mxCell>
                <mxCell id="22" value="&lt;pre&gt;&amp;lt;T&amp;gt; → &amp;lt;P&amp;gt; •&lt;br&gt;&lt;/pre&gt;" style="rounded=0;whiteSpace=wrap;html=1;align=left;fontSize=20;" vertex="1" parent="1">
                    <mxGeometry x="800" y="335" width="160" height="40" as="geometry"/>
                </mxCell>
                <mxCell id="23" value="&lt;pre&gt;&lt;font style=&quot;font-size: 20px&quot;&gt;&amp;lt;P&amp;gt;&lt;sub&gt;4&lt;/sub&gt;&lt;/font&gt;&lt;/pre&gt;" style="rounded=0;whiteSpace=wrap;html=1;fontSize=20;" vertex="1" parent="1">
                    <mxGeometry x="800" y="295" width="80" height="40" as="geometry"/>
                </mxCell>
                <mxCell id="45" value="&lt;pre&gt;&lt;pre&gt;&amp;lt;P&amp;gt; → epsilon •&lt;span style=&quot;font-size: 12px&quot;&gt;&lt;br&gt;&lt;/span&gt;&lt;/pre&gt;&lt;/pre&gt;" style="rounded=0;whiteSpace=wrap;html=1;align=left;fontSize=20;" vertex="1" parent="1">
                    <mxGeometry x="520" y="760" width="200" height="40" as="geometry"/>
                </mxCell>
                <mxCell id="46" value="&lt;pre&gt;&lt;pre style=&quot;text-align: left&quot;&gt;epsilon&lt;sub&gt;6&lt;/sub&gt;&lt;/pre&gt;&lt;/pre&gt;" style="rounded=0;whiteSpace=wrap;html=1;fontSize=20;" vertex="1" parent="1">
                    <mxGeometry x="520" y="720" width="120" height="40" as="geometry"/>
                </mxCell>
            </root>
        </mxGraphModel>
    </diagram>
</mxfile>
